<svg xmlns="http://www.w3.org/2000/svg" viewBox="0 0 64 64" role="img" aria-labelledby="judul deskripsi">
  <title id="judul">Ikon sementara Wawangian Pelajar</title>
  <desc id="deskripsi">Ilustrasi sederhana botol parfum dengan warna navy, tosca, dan emas.</desc>
  <rect width="64" height="64" rx="16" fill="#14223d"/>
  <path d="M25 12h14v8H25z" fill="#b8860b"/>
  <path d="M21 23c0-3 2-5 5-5h12c3 0 5 2 5 5v24c0 3-2 5-5 5H26c-3 0-5-2-5-5V23z" fill="#fff"/>
  <path d="M25 34c5-1 9-4 14-8v17c0 3-2 5-5 5h-4c-3 0-5-2-5-5v-9z" fill="#0f6b62"/>
  <circle cx="40" cy="16" r="3" fill="#e9c45d"/>
</svg>
